<?xml version="1.0" encoding="UTF-8"?>
<svg id="Layer_1" data-name="Layer 1" xmlns="http://www.w3.org/2000/svg" viewBox="0 0 668.92 223">
  <defs>
    <style>
      .cls-1 {
        fill: #172c4b;
      }
    </style>
  </defs>
  <path class="cls-1" d="M76.09,171.49H36.69l9.14-102.13h20.8c9.82,0,17.83,8.7,16.96,18.42l-7.49,83.71Z"/>
  <path class="cls-1" d="M372.39,171.49h-39.4l10.57-120.62h20.84c9.81,0,17.81,8.68,16.96,18.39l-8.97,102.23Z"/>
  <path class="cls-1" d="M281.41,147.41c-5.83,0-9.7-1.54-11.62-4.61-1.92-3.08-2.72-6.69-2.54-13.04h66.15c.19-2.45,.26-5.46,.33-6.85,.85-16.87-3.35-30.2-12.6-39.99-9.25-9.79-21.78-14.68-37.58-14.68s-29.63,5.19-39.93,15.57c-10.3,10.38-15.83,23.12-16.6,38.2-.73,14.55,3.61,26.74,13.02,36.56,9.41,9.83,22.43,14.73,39.08,14.73,14.96,0,27-3.48,36.12-10.47,8.45-6.46,14.09-14.2,16.98-23.19h-28.91c-4.07,0-8.1,1.21-10.97,3.95-2.65,2.53-6.29,3.82-10.94,3.82Zm1.31-55.86c3.87,0,7.05,1.17,9.55,3.52,2.5,2.35,3.6,6.93,3.33,13.74h-27.49c.58-11.51,5.45-17.26,14.62-17.26Z"/>
  <path class="cls-1" d="M435.27,147.41c-5.83,0-9.7-1.54-11.62-4.61-1.92-3.08-2.72-6.69-2.54-13.04h66.15c.19-2.45,.26-5.46,.33-6.85,.85-16.87-3.35-30.2-12.6-39.99-9.25-9.79-21.78-14.68-37.58-14.68s-29.63,5.19-39.93,15.57c-10.3,10.38-15.83,23.12-16.6,38.2-.73,14.55,3.61,26.74,13.02,36.56,9.41,9.83,22.43,14.73,39.08,14.73,14.96,0,27-3.48,36.12-10.47,8.45-6.46,14.09-14.2,16.98-23.19h-28.91c-4.07,0-8.1,1.21-10.97,3.95-2.65,2.53-6.29,3.82-10.94,3.82Zm1.31-55.86c3.87,0,7.05,1.17,9.55,3.52,2.5,2.35,3.6,6.93,3.33,13.74h-27.49c.58-11.51,5.45-17.26,14.62-17.26Z"/>
  <path class="cls-1" d="M542.23,144.16c-.14,0-.26,.04-.4,.04-.12,0-.22-.03-.34-.04h-.66v-.08c-4.15-.28-7.07-2.14-8.65-5.74-1.71-3.9-2.35-9.91-1.92-18.04,.49-9.43,1.79-16.04,3.9-19.84,2.11-3.8,5.24-5.7,9.38-5.7,.49,0,.86,0,1.26,0h0s.3,0,.3,0c.12,0,.27,0,.39,0h3.12l2.32-26.49c-3.86-.02-6.47-.02-7.07-.02-14.96,0-27.37,4.92-37.24,14.77-9.87,9.85-15.2,22.38-16,37.59-.77,14.89,3.3,27.09,12.22,36.62,8.92,9.52,20.93,14.28,36.02,14.28,.17,0,1.24,0,3.03,0l2.4-27.33h-2.05Z"/>
  <path class="cls-1" d="M211.55,134.96l2.82-30.78h0l1.36-14.39h16.58l1.78-20.43h-16.43c.92-9.75-7.09-18.5-16.95-18.5h-21.08s-1.44,18.5-1.44,18.5l-1.24,14.06-4.61,51.54-1.48,16.54c-.62,6.04,.75,10.89,4.09,14.52,3.35,3.64,8.04,5.46,14.09,5.46h35.96l1.6-19.9h-7.26c-4.78,0-8.89-4.41-8.47-9.08l.69-7.54Z"/>
  <path class="cls-1" d="M164.91,171.49h-39.41l9.14-102.13h20.8c9.82,0,17.83,8.7,16.96,18.42l-7.49,83.71Z"/>
  <path class="cls-1" d="M122.4,171.49h-39.41l9.14-102.13h20.8c9.82,0,17.83,8.7,16.96,18.42l-7.49,83.71Z"/>
  <path class="cls-1" d="M82.29,59.95c-2.88-5.33-8.53-9.09-14.98-9.09h-20.8l-.81,9.09h36.6Z"/>
  <path class="cls-1" d="M599.17,38.42h-45.46l-1.78,19.86h79.98c-6.3-11.64-18.64-19.86-32.74-19.86Z"/>
  <path class="cls-1" d="M632.24,32.09c-6.3-11.64-18.64-19.86-32.74-19.86h-43.84l-1.74,19.86h78.32Z"/>
  <g>
    <path class="cls-1" d="M437.73,210.2l4.72-26.79h9.38c1.79,0,3.31,.24,4.58,.71s2.19,1.25,2.76,2.32c.57,1.08,.7,2.52,.38,4.33-.19,1.08-.69,2.03-1.49,2.86-.8,.83-1.67,1.54-2.58,2.15,1.24,.58,2.17,1.41,2.81,2.5,.63,1.09,.8,2.48,.51,4.16-.23,1.31-.66,2.44-1.29,3.39-.63,.95-1.43,1.75-2.39,2.4-.97,.66-2.07,1.15-3.29,1.48-1.23,.33-2.56,.49-4.01,.49h-10.08Zm6.49-12.02l-1.47,8.35h5.4c1.05,0,2.01-.14,2.87-.43,.87-.29,1.58-.73,2.15-1.34,.57-.6,.93-1.35,1.09-2.25,.25-1.44-.01-2.53-.81-3.25-.79-.72-1.92-1.08-3.39-1.08h-5.83Zm1.95-11.07l-1.32,7.48h3.74c1.05,0,2.03-.13,2.93-.39,.9-.26,1.65-.66,2.24-1.2,.59-.54,.97-1.25,1.13-2.15,.17-.97,.1-1.73-.21-2.28-.31-.55-.81-.93-1.49-1.14-.69-.21-1.54-.31-2.56-.31h-4.45Z"/>
    <path class="cls-1" d="M477.75,183.41l5.72,26.51-4.52,.59-1.35-7.09h-10.6l-3.68,6.78h-4.41l14.97-26.79h3.86Zm-3.06,5.99l-5.79,10.48h7.96l-2.17-10.48Z"/>
    <path class="cls-1" d="M487.28,210.2l4.72-26.79h4.18l8.48,16.23,1.34,2.68,3.33-18.91h4.49l-4.72,26.79h-4.25l-8.9-17.02-.95-1.97-3.35,18.99h-4.37Z"/>
    <path class="cls-1" d="M531.99,210.2l-6.67-11.74-3.3,2.88-1.56,8.86h-4.41l4.72-26.79h4.41l-2.08,11.82,14.08-12.41,2.83,2.52-11.12,9.89,8.55,14.97h-5.44Z"/>
  </g>
</svg>