<svg width="46" height="46" fill="#172c4b" viewBox="0 0 24 24" xmlns="http://www.w3.org/2000/svg">
  <path fill-rule="evenodd" d="M11.477 4.712c-3.573 0-6.685 2.045-7.584 4.95h-.66a1.2 1.2 0 0 0-1.18 1.406l.304 1.752a1.8 1.8 0 0 0 1.773 1.492h.316c.36.616.826 1.174 1.374 1.658l-.875 2.973a.6.6 0 0 0 .576.769h2.4a.6.6 0 0 0 .565-.398l.579-1.622c.762.208 1.572.32 2.413.32.848 0 1.666-.113 2.434-.326l.651 1.647a.599.599 0 0 0 .558.379h2.4a.6.6 0 0 0 .574-.774l-.913-3.007c1.31-1.177 2.138-2.78 2.138-4.569a5.51 5.51 0 0 0-.024-.517c.313-.132.61-.32.846-.533.378.368.978.368.978-.5 0 .268-.6.268-.553-.031.05-.097.087-.2.108-.306a.839.839 0 0 0-.243-.774.696.696 0 0 0-.848-.118.882.882 0 0 0-.45.675c-.029.291.098.576.384.784-.1.069-.203.13-.31.184-.641-3.197-3.941-5.514-7.731-5.514Zm8.607 4.651a.675.675 0 0 1-.117.252.9.9 0 0 1-.053-.03c-.175-.108-.188-.21-.182-.267a.285.285 0 0 1 .14-.208c.059-.032.096-.025.136.014a.242.242 0 0 1 .076.24Zm-10.798-.78a7.936 7.936 0 0 1 2.19-.303c.8 0 1.564.116 2.272.327a.6.6 0 1 0 .344-1.15 9.12 9.12 0 0 0-2.615-.377c-.88 0-1.73.123-2.523.35a.6.6 0 0 0 .332 1.154ZM7.92 10.38a.9.9 0 1 1-1.8 0 .9.9 0 0 1 1.8 0Z" clip-rule="evenodd"></path>
</svg>